<?xml version="1.0" encoding="UTF-8"?>
<!-- Generator: Adobe Illustrator 16.0.0, SVG Export Plug-In . SVG Version: 6.00 Build 0)  -->
<!DOCTYPE svg PUBLIC "-//W3C//DTD SVG 1.1//EN" "http://www.w3.org/Graphics/SVG/1.1/DTD/svg11.dtd">
<svg version="1.1" id="Layer_1" xmlns="http://www.w3.org/2000/svg" xmlns:xlink="http://www.w3.org/1999/xlink" x="0px" y="0px" width="100%" viewBox="0 0 284 80" enable-background="new 0 0 284 80" xml:space="preserve">
<g>
	<path fill="#1C76B5" d="M42.151,69.736V40.262h7.963v23.042h11.351v6.432H42.151L42.151,69.736z"/>
	<path fill="#1C76B5" d="M82.855,69.736H65.356V40.262h17.499v6.39h-9.536v4.638h8.83v6.392h-8.83v5.563h9.536V69.736z"/>
	<path fill="#1C76B5" d="M98.076,78.99c-1.452,0-2.829-0.143-4.133-0.424v-6.189c0.43,0.081,0.887,0.172,1.37,0.271   c0.484,0.102,1.009,0.151,1.573,0.151c1.316,0,2.258-0.396,2.822-1.188s0.847-2.15,0.847-4.072V40.262h8.004v26.591   c0,3.992-0.874,7.013-2.621,9.063C104.191,77.965,101.57,78.99,98.076,78.99z"/>
	<path fill="#1C76B5" d="M140.032,54.959c0,4.959-1.217,8.729-3.648,11.311c-2.434,2.58-5.995,3.871-10.686,3.871   c-4.624,0-8.168-1.297-10.635-3.893c-2.466-2.594-3.699-6.37-3.699-11.33c0-4.904,1.227-8.65,3.68-11.238   c2.452-2.588,6.018-3.882,10.694-3.882c4.69,0,8.246,1.284,10.665,3.851C138.823,46.216,140.032,49.986,140.032,54.959z    M119.751,54.959c0,5.699,1.982,8.548,5.947,8.548c2.017,0,3.511-0.692,4.485-2.077c0.975-1.384,1.462-3.541,1.462-6.471   c0-2.943-0.494-5.117-1.481-6.521c-0.988-1.403-2.463-2.106-4.426-2.106C121.747,46.33,119.751,49.207,119.751,54.959z"/>
	<path fill="#1C76B5" d="M168.764,40.262v17.741c0,3.856-1.094,6.845-3.277,8.962c-2.185,2.116-5.332,3.176-9.444,3.176   c-4.019,0-7.106-1.029-9.265-3.086c-2.157-2.057-3.234-5.013-3.234-8.869V40.262h8.003v17.298c0,2.082,0.39,3.594,1.17,4.535   c0.779,0.941,1.929,1.411,3.447,1.411c1.626,0,2.806-0.467,3.538-1.401c0.732-0.934,1.099-2.463,1.099-4.586V40.262H168.764z"/>
	<path fill="#1C76B5" d="M181.264,59.012v10.725H173.3V40.262h9.656c8.011,0,12.017,2.903,12.017,8.708c0,3.414-1.666,6.057-5,7.924   l8.588,12.842h-9.031l-6.249-10.725H181.264z M181.264,53.023h1.491c2.782,0,4.173-1.23,4.173-3.689   c0-2.029-1.363-3.045-4.092-3.045h-1.572V53.023L181.264,53.023z"/>
	<path fill="#1C76B5" d="M228.48,69.736h-10.443l-10.766-20.766h-0.183c0.255,3.266,0.384,5.76,0.384,7.479v13.284h-7.057V40.262   h10.402l10.726,20.482h0.121c-0.188-2.971-0.282-5.355-0.282-7.156V40.262h7.098V69.736z"/>
	<path fill="#1C76B5" d="M252.107,69.736l-1.451-5.523h-9.576l-1.491,5.523h-8.75l9.616-29.596h10.625l9.736,29.596H252.107z    M249.003,57.68l-1.271-4.838c-0.295-1.074-0.654-2.467-1.078-4.174c-0.424-1.706-0.702-2.93-0.836-3.668   c-0.121,0.686-0.36,1.814-0.717,3.387c-0.355,1.572-1.146,4.67-2.369,9.293H249.003z"/>
	<path fill="#1C76B5" d="M263.178,69.736V40.262h7.963v23.042h11.352v6.432H263.178L263.178,69.736z"/>
</g>
<g>
	<path fill="#414142" d="M19.278,7.024c-1.895,0-3.374,0.776-4.435,2.328c-1.062,1.553-1.593,3.693-1.593,6.421   c0,5.672,2.157,8.508,6.471,8.508c1.304,0,2.567-0.182,3.791-0.544c1.223-0.363,2.452-0.8,3.688-1.311v6.733   c-2.459,1.089-5.241,1.633-8.346,1.633c-4.449,0-7.86-1.291-10.232-3.871s-3.558-6.31-3.558-11.189   c0-3.051,0.575-5.732,1.724-8.044s2.802-4.089,4.959-5.333c2.157-1.243,4.694-1.865,7.611-1.865c3.186,0,6.229,0.692,9.133,2.077   l-2.439,6.27c-1.089-0.511-2.178-0.941-3.267-1.291C21.698,7.199,20.528,7.024,19.278,7.024z"/>
	<path fill="#414142" d="M61.011,30.39H50.567L39.802,9.625H39.62c0.255,3.266,0.383,5.759,0.383,7.479V30.39h-7.056V0.916H43.35   l10.726,20.483h0.121c-0.188-2.97-0.282-5.355-0.282-7.157V0.916h7.097L61.011,30.39L61.011,30.39z"/>
	<path fill="#414142" d="M74.518,19.665V30.39h-7.963V0.916h9.656c8.011,0,12.016,2.903,12.016,8.709   c0,3.414-1.666,6.055-4.999,7.923l8.588,12.842h-9.032l-6.249-10.726L74.518,19.665L74.518,19.665z M74.518,13.677h1.492   c2.782,0,4.173-1.23,4.173-3.689c0-2.029-1.364-3.044-4.092-3.044h-1.573V13.677L74.518,13.677z"/>
	<path fill="#414142" d="M113.771,21.439c0,1.828-0.464,3.451-1.392,4.869c-0.927,1.418-2.265,2.52-4.012,3.306   c-1.747,0.787-3.797,1.18-6.148,1.18c-1.963,0-3.609-0.138-4.939-0.414c-1.331-0.275-2.715-0.756-4.153-1.441v-7.096   c1.519,0.779,3.098,1.388,4.737,1.824c1.64,0.437,3.146,0.655,4.517,0.655c1.183,0,2.049-0.205,2.601-0.615   c0.551-0.41,0.826-0.938,0.826-1.583c0-0.403-0.11-0.756-0.332-1.059c-0.222-0.303-0.578-0.608-1.069-0.917   c-0.49-0.309-1.797-0.94-3.921-1.895c-1.922-0.874-3.363-1.72-4.324-2.54c-0.961-0.82-1.674-1.761-2.137-2.822   c-0.464-1.062-0.696-2.319-0.696-3.77c0-2.715,0.988-4.832,2.964-6.351s4.69-2.278,8.145-2.278c3.051,0,6.162,0.706,9.335,2.117   l-2.439,6.149c-2.756-1.263-5.135-1.895-7.137-1.895c-1.035,0-1.788,0.182-2.258,0.544c-0.471,0.363-0.706,0.813-0.706,1.351   c0,0.578,0.299,1.096,0.897,1.553c0.598,0.457,2.221,1.29,4.868,2.5c2.54,1.143,4.305,2.369,5.292,3.68   C113.276,17.8,113.771,19.45,113.771,21.439z"/>
</g>
<polygon fill="#414142" points="5.589,39.938 13.19,48 24,48 24,59.464 33.271,69.297 33.271,39.938 "/>
</svg>